<?xml version="1.0" standalone="no"?>
<!DOCTYPE svg PUBLIC "-//W3C//DTD SVG 20010904//EN"
 "http://www.w3.org/TR/2001/REC-SVG-20010904/DTD/svg10.dtd">
<svg version="1.0" xmlns="http://www.w3.org/2000/svg"
 width="1321.000000pt" height="1321.000000pt" viewBox="0 0 1321.000000 1321.000000"
 preserveAspectRatio="xMidYMid meet">
<g transform="translate(0.000000,1321.000000) scale(0.100000,-0.100000)"
fill="#000000" stroke="none">
<path d="M8155 12045 c-138 -28 -490 -126 -551 -155 -36 -16 -67 -30 -70 -30
-15 0 -178 -111 -249 -170 -72 -60 -263 -260 -297 -311 -58 -87 -212 -398
-240 -485 -15 -45 -33 -138 -43 -217 -9 -75 -18 -145 -20 -155 -92 -428 -128
-577 -146 -599 -6 -6 -36 -17 -67 -23 -95 -19 -215 -52 -247 -68 -101 -50
-222 -215 -232 -316 -3 -35 -21 -83 -59 -156 -61 -119 -139 -333 -179 -495
-23 -90 -28 -133 -28 -235 -1 -118 1 -129 29 -187 30 -66 43 -78 45 -40 5 142
94 351 240 563 81 118 87 124 174 193 85 67 102 76 191 106 77 26 84 27 236
21 112 -5 176 -12 220 -26 35 -10 86 -24 113 -30 28 -5 60 -12 73 -15 29 -7
28 -24 -7 -82 -28 -46 -79 -183 -99 -268 -6 -22 -26 -96 -47 -165 -88 -300
-133 -471 -140 -537 -2 -18 -13 -49 -25 -70 -11 -21 -31 -63 -44 -95 -22 -51
-32 -62 -113 -116 -160 -109 -260 -207 -355 -350 -32 -48 -58 -83 -58 -79 0
14 -69 272 -83 313 -36 101 -155 293 -214 346 -11 10 -56 31 -100 47 -124 45
-136 54 -111 79 13 13 11 14 -57 31 -77 21 -182 9 -274 -31 -149 -63 -344
-251 -486 -467 -46 -71 -56 -79 -135 -121 -116 -61 -137 -77 -148 -109 -22
-63 42 -123 226 -208 298 -137 376 -190 587 -392 123 -119 197 -169 277 -190
55 -14 56 4 1 35 -100 56 -159 99 -251 182 -147 132 -182 167 -182 179 0 5 33
26 73 45 166 80 301 260 401 533 47 128 87 205 106 205 19 0 86 -69 119 -124
63 -105 136 -359 176 -616 11 -72 16 -86 45 -119 17 -18 31 -31 31 -27 1 3 2
9 3 14 1 4 5 25 10 47 28 145 72 207 211 300 144 96 209 126 326 151 53 11
166 5 214 -11 95 -33 253 -168 299 -256 10 -19 24 -46 32 -60 30 -56 124 -123
299 -213 56 -28 72 -33 89 -24 33 18 340 329 373 378 16 25 42 77 57 115 15
39 39 87 52 108 30 45 29 52 -23 207 -52 154 -75 193 -143 243 -65 47 -259
110 -405 131 -22 4 -65 11 -95 16 -53 9 -75 13 -150 25 -19 3 -46 7 -60 10
-156 28 -236 24 -354 -19 -55 -20 -103 -33 -108 -28 -13 13 75 297 207 667 64
178 83 221 114 249 22 20 28 51 11 61 -18 11 -12 38 8 32 9 -2 58 -17 107 -31
50 -15 133 -38 185 -52 113 -29 160 -50 160 -69 0 -8 -4 -15 -10 -15 -5 0 -10
-4 -10 -9 0 -6 -27 -47 -60 -93 -150 -209 -300 -499 -300 -581 0 -10 37 37 81
105 69 103 193 272 260 353 9 11 63 76 119 145 57 69 122 145 145 170 63 67
179 227 191 263 4 9 15 17 25 17 11 0 19 6 19 14 0 7 20 36 45 62 26 27 53 61
61 77 8 15 19 28 24 28 6 1 13 2 18 3 8 1 49 30 92 64 15 12 33 22 39 22 6 0
16 11 22 24 14 29 82 69 95 56 6 -6 22 -1 45 14 19 13 50 26 69 29 19 3 71 13
115 23 117 25 425 25 630 -1 179 -24 274 -36 295 -39 27 -5 83 -13 165 -23 28
-4 100 -6 161 -6 97 0 118 3 167 26 76 34 186 107 229 150 31 31 35 40 33 81
-1 25 -10 64 -20 87 -16 34 -16 42 -4 53 35 34 225 95 349 112 19 2 58 8 85
12 76 12 199 5 274 -16 36 -11 117 -40 178 -66 62 -25 179 -68 260 -96 82 -27
261 -87 399 -134 316 -107 351 -114 534 -110 131 2 171 5 250 19 14 3 40 7 59
10 67 11 175 45 238 74 159 75 302 290 252 379 -23 43 -102 64 -224 62 -184
-4 -266 -1 -343 10 -99 14 -127 23 -241 76 -51 24 -95 44 -97 44 -2 0 -32 13
-68 29 -50 24 -149 58 -186 66 -3 1 -45 11 -95 23 -195 46 -307 59 -510 56
-195 -2 -270 -9 -340 -31 -63 -20 -306 -144 -496 -253 -79 -46 -155 -90 -169
-97 -14 -8 -43 -25 -65 -38 -60 -36 -197 -103 -225 -110 -19 -4 -51 9 -135 57
-149 86 -261 131 -375 153 -14 3 -36 7 -50 10 -280 59 -723 30 -899 -60 -58
-29 -100 -63 -225 -178 -289 -267 -391 -382 -524 -587 -95 -148 -121 -182
-132 -175 -4 3 -11 26 -15 52 -9 64 -20 82 -58 98 -18 7 -43 23 -57 35 -152
130 -201 170 -227 183 -44 22 -160 60 -273 88 -55 14 -42 11 -270 54 -26 5
-103 14 -165 20 -109 11 -115 18 -79 95 13 28 24 63 24 76 0 13 3 24 8 24 4 0
16 21 26 48 37 91 79 171 93 176 8 3 25 -1 38 -10 22 -14 24 -14 29 4 4 11 9
54 11 96 6 101 34 181 102 294 30 51 56 103 56 117 0 18 5 25 26 27 18 2 26 9
25 21 -1 9 3 16 10 15 6 -2 34 20 62 47 28 28 64 60 80 72 20 14 29 30 30 51
0 21 12 39 42 66 l41 37 -9 -32 c-5 -17 -16 -39 -25 -49 -26 -29 -17 -31 23
-6 64 42 143 86 242 133 52 25 129 61 170 81 62 30 89 36 155 40 115 5 124 -3
106 -99 -38 -218 -52 -352 -66 -674 -3 -71 -8 -151 -10 -177 -4 -50 9 -114 18
-88 2 8 9 53 15 100 6 47 13 95 15 107 3 12 8 48 12 80 3 32 8 76 11 98 3 22
7 65 9 95 3 30 7 73 9 95 3 22 8 69 11 105 3 36 8 81 10 100 3 19 9 76 15 125
14 118 19 135 39 136 172 10 594 13 669 5 53 -6 67 -5 83 10 10 9 35 18 55 19
23 2 41 11 52 25 9 12 27 34 38 48 29 37 34 57 36 148 1 93 -4 113 -48 179
-19 27 -34 59 -34 71 0 27 -31 67 -73 92 -35 22 -387 110 -459 115 -24 2 -50
7 -56 11 -17 10 -147 5 -217 -9z m-560 -655 c10 -11 14 -20 8 -20 -20 0 -73
22 -73 31 0 17 47 9 65 -11z m-95 -155 c0 -10 -64 -72 -86 -83 -24 -13 -34 -7
-34 20 0 10 7 18 16 18 8 0 32 11 52 25 36 24 52 31 52 20z m-250 -192 c-1
-18 -19 -35 -29 -28 -9 5 -9 10 0 21 12 15 29 19 29 7z m-86 -95 c-7 -11 -44
-10 -44 2 0 16 34 30 42 17 4 -6 4 -15 2 -19z"/>
<path d="M5128 10995 c-2 -2 -50 -6 -108 -9 -174 -11 -377 -63 -590 -153 -52
-23 -106 -44 -120 -48 -26 -7 -78 -28 -118 -48 -13 -6 -60 -42 -104 -80 -45
-37 -90 -73 -100 -78 -17 -9 -19 -21 -17 -82 2 -84 14 -112 66 -157 44 -39
153 -91 203 -97 19 -2 56 -11 81 -19 25 -8 54 -16 65 -19 255 -57 368 -65 466
-31 130 46 205 94 304 195 132 137 171 180 201 228 42 66 76 73 215 44 79 -17
173 -73 228 -136 52 -59 85 -102 128 -170 48 -73 69 -120 162 -362 48 -125 53
-113 35 77 -14 151 -71 359 -121 447 -14 24 -62 80 -107 126 -202 205 -410
338 -566 362 -43 7 -198 14 -203 10z"/>
<path d="M2710 10259 c-14 -6 -86 -26 -160 -45 -135 -35 -177 -41 -326 -49
-134 -7 -243 -42 -349 -115 -22 -15 -62 -38 -88 -50 -56 -27 -85 -72 -91 -148
-3 -39 1 -56 16 -79 39 -53 113 -103 268 -181 253 -127 487 -190 732 -197 181
-5 250 18 698 238 234 114 355 165 407 172 16 3 43 6 61 9 19 2 52 -2 75 -10
22 -8 100 -28 171 -45 286 -66 453 -133 551 -224 17 -15 100 -94 185 -175 85
-81 179 -169 208 -195 46 -42 142 -157 142 -170 0 -2 13 -24 29 -47 17 -24 53
-89 81 -143 97 -186 107 -202 147 -218 44 -17 63 -13 58 14 -11 58 -97 276
-130 329 -12 19 -24 43 -28 53 -3 9 -11 17 -17 17 -5 0 -10 7 -10 15 0 8 -10
25 -22 38 -13 13 -44 50 -69 83 -51 64 -51 64 -208 234 -195 212 -290 297
-416 373 -55 33 -108 59 -335 164 -140 66 -261 112 -373 144 -62 17 -159 53
-217 79 -107 48 -181 75 -235 85 -54 10 -159 24 -230 31 -38 3 -95 10 -125 14
-81 11 -371 10 -400 -1z"/>
<path d="M11429 9922 c-302 -318 -537 -544 -737 -708 -13 -10 -33 -27 -45 -38
-12 -10 -76 -62 -142 -116 -172 -140 -205 -180 -63 -77 36 26 70 47 76 47 5 0
15 7 23 16 7 8 29 24 49 34 44 22 259 183 385 287 203 168 475 459 475 507 0
8 7 16 15 20 8 3 15 12 15 21 0 8 4 15 8 15 4 0 15 13 25 29 14 24 15 30 3 34
-9 4 -42 -24 -87 -71z"/>
<path d="M4970 9815 c0 -5 12 -30 26 -55 14 -25 44 -79 67 -120 45 -83 107
-179 107 -166 0 13 -104 207 -147 272 -52 79 -53 81 -53 69z"/>
<path d="M3560 8996 c0 -9 111 -79 116 -73 3 3 -18 21 -48 41 -48 33 -68 42
-68 32z"/>
<path d="M8701 8900 c-68 -93 -221 -280 -266 -326 -48 -49 -181 -197 -188
-211 -32 -55 181 153 268 262 22 28 43 52 46 55 34 30 225 307 218 315 -3 2
-37 -41 -78 -95z"/>
<path d="M3716 8882 c29 -24 78 -62 159 -123 140 -105 323 -264 314 -273 -2
-3 -24 -7 -49 -11 -25 -3 -70 -10 -100 -15 -30 -5 -71 -11 -90 -14 -95 -15
-133 -25 -220 -59 -62 -24 -163 -89 -218 -142 -62 -58 -80 -62 -180 -32 -48
14 -145 40 -217 58 -139 34 -160 43 -315 132 -56 33 -111 64 -123 70 -12 7
-55 35 -95 62 -173 118 -292 172 -422 191 -30 4 -163 4 -205 0 -16 -2 -38 -4
-47 -4 -10 -1 -27 -11 -39 -23 -19 -19 -21 -19 -33 -3 -10 14 -21 15 -59 10
-57 -9 -62 -26 -8 -26 22 0 43 -4 46 -10 6 -10 3 -11 -50 -14 -19 0 -30 -6
-30 -15 0 -8 -6 -16 -12 -18 -13 -5 -15 1 -17 42 -1 27 -33 26 -181 -9 -214
-51 -295 -77 -529 -173 -313 -128 -458 -200 -547 -270 -41 -32 -123 -96 -184
-143 -122 -93 -136 -107 -166 -164 -12 -21 -30 -48 -41 -60 -30 -31 -58 -78
-58 -98 0 -27 61 -81 183 -162 63 -42 118 -76 122 -76 4 0 39 -20 79 -44 76
-48 128 -64 191 -60 195 13 302 46 406 124 65 49 200 180 316 308 113 124 285
295 344 342 26 20 78 49 115 65 38 15 78 31 89 36 32 13 127 38 170 44 22 4
48 8 58 11 21 7 204 7 232 0 11 -2 83 -23 160 -46 153 -45 235 -59 235 -41 0
7 12 3 28 -8 15 -10 49 -22 76 -26 27 -4 79 -16 115 -27 90 -28 116 -32 189
-30 35 1 61 -2 58 -7 -7 -10 17 -17 89 -26 66 -9 75 -19 43 -52 -44 -49 -106
-136 -132 -190 -25 -49 -29 -52 -74 -58 -65 -8 -200 -43 -236 -60 -16 -8 -33
-15 -38 -15 -20 0 -251 -117 -366 -186 -120 -73 -349 -237 -420 -303 -18 -17
-54 -43 -80 -58 -26 -15 -64 -39 -84 -55 -20 -16 -56 -37 -80 -48 -53 -23 -71
-42 -97 -101 l-20 -45 30 -119 c17 -66 41 -139 55 -162 76 -131 361 -413 530
-525 86 -57 209 -117 252 -122 17 -3 36 -7 41 -10 16 -10 -8 -65 -66 -150 -29
-43 -53 -84 -53 -90 0 -6 -20 -34 -45 -61 -39 -43 -44 -54 -39 -80 9 -39 31
-73 55 -80 10 -4 19 -11 19 -16 0 -43 340 -256 451 -283 38 -9 113 17 204 70
139 82 196 152 360 446 46 81 85 162 89 180 3 18 24 80 47 138 22 58 58 152
80 210 26 67 51 116 71 137 35 36 352 198 453 232 78 26 227 23 415 -9 80 -13
92 -16 185 -45 46 -15 94 -25 107 -23 21 3 16 10 -43 69 -79 79 -164 129 -308
180 -116 40 -331 89 -425 96 -86 7 -136 -6 -486 -121 -355 -117 -408 -137
-535 -208 -101 -56 -170 -123 -237 -227 -126 -198 -169 -260 -208 -298 -52
-51 -80 -56 -81 -15 0 15 -2 34 -4 42 -1 8 -5 44 -9 80 -9 90 -16 145 -36 260
-5 30 -12 73 -15 95 -3 22 -10 65 -15 95 -5 30 -11 66 -14 80 -2 14 -14 66
-26 115 -37 153 -28 219 45 365 45 89 94 149 258 317 151 155 188 184 267 214
l53 20 -8 -58 c-11 -88 -7 -170 11 -206 47 -92 151 -181 249 -215 33 -11 105
-36 160 -55 137 -49 176 -53 229 -27 52 25 157 126 190 183 23 39 119 310 130
367 12 66 125 311 178 388 49 71 193 127 295 115 79 -10 223 1 223 16 0 20
-192 113 -353 170 -47 16 -96 39 -109 50 -13 10 -61 51 -106 91 -167 142 -441
331 -479 330 -4 -1 1 -8 13 -18z"/>
<path d="M9879 8826 c-2 -2 -24 -7 -49 -11 -25 -3 -70 -13 -100 -20 -30 -8
-120 -23 -200 -35 -290 -40 -393 -79 -708 -265 -96 -57 -194 -136 -176 -142 6
-2 49 14 95 36 224 105 443 187 569 213 75 16 119 19 205 15 61 -3 121 -8 135
-11 14 -3 50 -11 80 -17 93 -19 185 -72 286 -164 64 -57 147 -142 155 -157 24
-44 19 -48 -473 -377 -159 -106 -291 -198 -295 -203 -3 -6 -2 -9 3 -6 5 3 49
24 98 47 140 65 318 182 557 363 64 48 119 88 123 88 3 0 5 -62 4 -138 l-2
-139 33 -67 c79 -160 261 -335 431 -413 30 -14 113 -59 183 -100 215 -127 260
-138 381 -92 64 23 130 78 122 99 -4 8 -27 28 -51 44 -55 34 -97 92 -123 170
-19 56 -20 77 -7 190 11 94 13 99 53 92 47 -7 183 -73 273 -131 141 -91 206
-170 301 -365 70 -144 122 -192 353 -332 77 -46 186 -113 242 -147 117 -73
171 -89 291 -85 103 3 154 26 280 127 191 154 236 217 234 334 -1 83 -19 161
-41 172 -9 4 -25 7 -36 6 -11 -1 -47 -5 -79 -9 -33 -3 -71 -8 -85 -11 -14 -2
-60 -6 -101 -10 -41 -3 -86 -7 -100 -10 -30 -5 -42 4 -100 75 -164 202 -297
268 -849 420 -237 65 -379 96 -486 105 -97 8 -101 9 -118 23 -8 7 -24 46 -36
86 -49 165 -177 373 -301 489 -105 99 -268 169 -555 239 -56 13 -129 21 -246
24 -91 3 -167 3 -170 0z"/>
<path d="M8314 7798 c-17 -6 -44 -21 -60 -33 -27 -22 -28 -24 -9 -31 27 -11
43 -28 55 -59 8 -22 6 -30 -15 -51 -23 -23 -25 -54 -3 -54 11 0 35 -54 42 -96
31 -169 31 -172 -8 -287 -43 -125 -47 -173 -17 -216 18 -25 110 -91 126 -91
11 0 172 -104 212 -136 26 -21 52 -34 70 -34 37 0 102 42 174 111 104 100 152
183 184 317 10 40 22 75 27 78 4 3 16 -8 26 -25 9 -17 25 -31 35 -31 50 0 124
-72 145 -140 25 -82 36 -195 37 -360 0 -167 -1 -178 -27 -237 -14 -34 -52
-102 -84 -149 -58 -89 -85 -154 -80 -196 2 -12 20 -76 42 -142 43 -130 51
-140 174 -234 69 -52 84 -77 49 -79 -34 -3 -33 -9 4 -55 40 -49 119 -192 142
-257 49 -140 17 -319 -88 -482 -62 -98 -139 -151 -252 -177 -137 -32 -355 -45
-471 -28 -63 10 -90 9 -130 -1 -27 -7 -66 -13 -86 -13 -47 0 -64 -18 -85 -88
-22 -72 -19 -109 14 -180 30 -65 146 -185 209 -217 105 -53 215 -128 324 -220
131 -111 130 -110 182 -87 72 32 182 129 328 290 36 40 71 72 77 72 7 0 19
-13 27 -29 28 -53 81 -225 91 -297 4 -21 8 -50 11 -64 8 -48 6 -235 -4 -295
-6 -33 -13 -91 -17 -130 -9 -107 -22 -211 -35 -280 -5 -27 -12 -64 -15 -81
-11 -68 -53 -195 -76 -229 -14 -21 -44 -45 -74 -59 -27 -13 -75 -36 -105 -50
-30 -14 -76 -37 -102 -52 -59 -32 -114 -38 -148 -14 -47 33 -81 33 -211 1 -68
-16 -151 -32 -184 -36 -150 -14 -190 -38 -241 -144 -43 -91 -33 -163 42 -300
63 -114 176 -247 252 -295 58 -36 124 -45 206 -29 94 19 163 56 295 159 269
209 336 286 439 504 128 272 149 457 101 898 -16 149 -27 240 -35 287 -3 17
-7 44 -10 60 -15 97 -27 150 -50 230 -15 50 -30 95 -33 100 -4 6 -27 56 -50
112 l-44 102 32 60 c37 72 118 271 158 391 25 75 28 98 27 205 -1 150 -13 193
-68 250 -24 24 -46 55 -50 68 -3 14 -24 57 -46 96 -22 39 -40 72 -40 75 0 2
-22 37 -50 77 -27 40 -48 75 -45 78 3 2 18 -5 33 -16 41 -31 89 -53 112 -53
12 0 42 21 69 48 26 26 76 73 110 105 l62 57 57 -15 c31 -9 68 -18 82 -21 14
-3 50 -11 80 -19 104 -26 200 -33 283 -19 90 14 18 33 -188 49 -38 3 -81 7
-95 10 -14 2 -43 7 -65 10 -56 8 -115 25 -115 32 0 4 25 57 55 117 74 149 89
209 89 376 1 147 -6 215 -28 300 -35 131 -103 303 -146 365 -85 124 -281 275
-404 312 -59 18 -176 25 -195 13 -12 -7 -12 -12 3 -34 20 -31 19 -31 -36 -7
-156 67 -217 105 -219 136 -1 8 -2 18 -3 23 -1 4 -6 23 -10 42 -13 60 -82 193
-126 242 -51 58 -184 148 -265 178 -49 18 -84 23 -190 25 -71 1 -144 -2 -161
-7z"/>
<path d="M4226 7334 c69 -66 165 -149 178 -153 6 -2 54 -37 106 -78 52 -41
102 -80 110 -86 125 -97 437 -325 480 -350 57 -33 130 -59 130 -46 0 5 -21 24
-47 42 -25 17 -105 75 -177 128 -185 136 -321 226 -360 239 -19 6 -36 19 -39
29 -2 9 -51 48 -108 86 -90 59 -254 178 -269 194 -3 3 -14 12 -25 20 -11 7 -2
-4 21 -25z"/>
<path d="M7115 7151 c-16 -10 -44 -34 -62 -52 -36 -38 -133 -195 -133 -216 0
-25 18 -12 61 45 24 31 79 99 122 150 56 66 73 92 60 92 -10 0 -31 -9 -48 -19z"/>
<path d="M11250 7056 c-36 -12 -112 -47 -170 -76 -150 -75 -350 -166 -457
-207 -95 -37 -122 -57 -55 -43 20 5 60 11 87 14 156 20 241 47 390 123 143 74
326 214 278 213 -5 0 -37 -11 -73 -24z"/>
<path d="M7758 6969 c-10 -5 -18 -16 -18 -23 0 -21 -26 -26 -60 -14 -55 19
-116 2 -166 -46 -41 -40 -44 -46 -38 -82 14 -87 61 -198 141 -326 62 -100 80
-115 189 -158 43 -17 124 -55 179 -84 143 -76 188 -84 251 -43 25 16 35 32 40
57 3 19 15 62 26 95 30 85 35 180 13 244 -36 108 -267 336 -380 374 -49 17
-154 21 -177 6z m61 -58 c9 -6 10 -10 2 -16 -15 -8 -41 1 -41 15 0 12 20 13
39 1z"/>
<path d="M6485 6832 c-16 -2 -71 -21 -120 -42 -74 -32 -107 -40 -175 -44 -94
-5 -126 -15 -185 -54 -102 -70 -220 -225 -269 -355 -13 -34 -27 -52 -49 -63
-46 -24 -87 -71 -119 -139 -37 -80 -43 -141 -23 -213 35 -121 66 -164 199
-277 117 -100 189 -140 343 -190 81 -26 115 -43 142 -69 l36 -35 133 -4 c85
-3 138 -9 147 -17 22 -19 29 -6 12 22 -11 17 -15 55 -15 153 0 72 -5 142 -11
157 -5 14 -36 56 -69 91 -85 95 -168 279 -179 399 -7 70 23 159 113 338 82
162 140 249 186 279 21 13 35 28 32 33 -13 20 -84 37 -129 30z"/>
<path d="M5571 6643 c-42 -21 -205 -179 -302 -293 -39 -47 -117 -134 -173
-193 -124 -133 -143 -164 -156 -252 -15 -104 -12 -158 10 -209 22 -51 76 -138
110 -176 12 -14 30 -34 39 -45 61 -74 165 -139 337 -211 169 -70 223 -79 248
-42 22 32 20 77 -9 160 -13 40 -26 89 -28 108 -3 33 -6 35 -45 41 -23 3 -51
14 -63 25 -40 36 -139 254 -139 307 0 33 55 201 107 327 19 47 39 94 43 105 8
21 36 84 63 145 48 109 68 150 77 155 19 12 10 35 -20 50 -37 19 -57 19 -99
-2z"/>
<path d="M6909 6571 c-20 -10 -58 -34 -84 -55 -27 -20 -60 -39 -74 -43 -14 -3
-66 -25 -116 -48 -101 -47 -159 -99 -215 -192 -33 -54 -35 -62 -35 -148 0 -82
3 -96 33 -155 24 -48 48 -78 94 -115 68 -55 134 -104 160 -120 9 -5 52 -31 95
-56 43 -26 105 -70 137 -99 76 -67 127 -98 365 -222 55 -28 100 -36 102 -18 1
6 2 27 3 48 1 28 13 52 52 102 111 141 198 358 205 513 3 47 -8 66 -37 67 -16
0 -20 29 -19 140 l0 95 -48 27 c-27 15 -82 58 -121 96 -68 64 -177 132 -215
132 -9 0 -25 7 -36 16 -27 20 -140 54 -179 54 -17 -1 -47 -9 -67 -19z m271
-709 c-1 -25 -2 -26 -15 -9 -7 11 -11 25 -8 33 8 22 23 6 23 -24z"/>
<path d="M10482 6482 c-12 -2 -27 -13 -33 -24 -13 -24 -22 -16 111 -90 73 -41
117 -75 190 -148 186 -186 191 -213 89 -428 -72 -152 -117 -205 -277 -325 -75
-57 -86 -69 -124 -144 -35 -70 -41 -91 -42 -150 -1 -63 3 -76 48 -164 70 -137
137 -218 204 -246 45 -19 146 -49 192 -58 19 -3 55 -13 80 -20 25 -8 58 -17
74 -19 40 -7 104 -53 139 -101 96 -129 146 -322 151 -582 l1 -82 83 -138 c100
-168 207 -313 304 -412 91 -93 177 -137 303 -156 83 -12 99 -12 198 0 117 14
232 90 328 215 72 95 82 135 49 201 -26 51 -109 140 -167 180 -36 25 -45 27
-72 18 -20 -7 -40 -26 -57 -55 -14 -24 -29 -45 -32 -45 -21 -4 -79 -8 -169
-13 -140 -7 -179 5 -251 81 -95 101 -177 214 -273 373 -110 185 -203 323 -298
445 -39 50 -71 93 -71 97 0 4 25 35 55 70 38 43 77 106 124 203 140 285 161
383 108 503 -22 50 -26 74 -30 207 -4 136 -7 157 -35 231 -77 206 -157 317
-306 426 -115 86 -190 119 -306 137 -67 11 -247 19 -288 13z"/>
<path d="M8760 6420 c13 -7 119 -30 260 -56 14 -3 33 -7 44 -10 11 -4 16 -2
13 4 -6 9 -95 36 -152 46 -16 3 -41 8 -55 11 -52 10 -125 14 -110 5z"/>
<path d="M4760 6149 c-30 -16 -64 -39 -77 -51 l-22 -20 -27 21 c-30 23 -45 22
-145 -8 -63 -20 -275 -78 -307 -85 -62 -13 -83 -20 -88 -27 -8 -14 22 -22 43
-11 10 6 43 13 73 17 30 4 81 15 114 25 33 11 63 17 68 14 4 -3 8 -1 8 4 0 11
119 51 165 56 25 3 57 -6 74 -20 2 -2 -23 -45 -56 -96 -85 -132 -91 -142 -146
-248 -27 -52 -62 -117 -77 -145 -73 -132 -131 -257 -145 -311 -27 -105 -25
-200 5 -269 68 -157 93 -197 178 -283 51 -51 138 -122 211 -171 134 -92 201
-152 201 -179 0 -26 115 -256 169 -337 25 -38 98 -122 161 -186 102 -102 125
-120 210 -162 139 -68 195 -88 315 -113 30 -6 156 -6 190 1 84 16 168 53 258
113 54 36 100 69 102 73 3 3 24 3 47 -1 109 -21 182 -25 438 -25 264 1 277 1
325 23 183 83 232 126 347 298 37 55 78 105 91 111 30 14 62 78 60 121 -1 18
-12 51 -25 74 -19 33 -39 49 -107 84 -46 24 -129 76 -184 115 -55 40 -118 77
-141 83 -49 15 -145 13 -242 -3 -39 -7 -94 -14 -121 -15 -66 -4 -131 -40 -155
-86 -10 -20 -27 -72 -39 -115 -26 -99 -20 -205 17 -311 14 -40 21 -80 18 -90
-24 -66 -93 -117 -192 -140 -42 -10 -54 -10 -58 0 -3 7 11 54 30 104 45 117
84 246 92 299 5 40 4 43 -42 76 -26 19 -95 58 -153 87 -95 48 -254 136 -314
174 -12 8 -62 27 -111 41 -75 23 -102 26 -160 22 -140 -11 -191 -41 -201 -117
-4 -24 -18 -70 -31 -102 -13 -32 -24 -62 -24 -67 0 -6 -10 -36 -21 -67 -16
-43 -41 -78 -102 -141 -45 -47 -89 -89 -98 -94 -12 -6 -29 1 -62 26 -47 36
-157 159 -157 176 0 5 21 9 46 9 68 0 124 39 157 110 14 30 38 75 53 100 56
93 123 238 143 311 31 111 28 162 -14 247 -20 38 -42 73 -50 76 -8 3 -15 11
-15 19 0 48 -245 203 -408 259 -47 16 -92 34 -101 41 -32 27 -56 135 -54 247
2 92 73 306 137 413 l35 57 -27 0 c-15 0 -52 -14 -82 -31z"/>
<path d="M1375 6163 c-57 -12 -270 -68 -340 -90 -67 -21 -95 -37 -170 -98
-151 -123 -254 -231 -337 -355 -42 -63 -89 -140 -104 -170 -33 -65 -143 -234
-176 -270 -48 -53 -50 -65 -19 -107 55 -76 87 -97 223 -151 179 -71 214 -71
361 6 125 64 196 147 434 502 133 197 289 392 356 443 100 76 231 115 472 142
33 3 74 8 90 10 17 2 52 7 80 10 58 7 72 15 26 15 -18 0 -44 9 -58 20 -14 11
-34 20 -44 20 -10 0 -41 9 -68 20 -91 35 -231 52 -476 54 -126 2 -239 1 -250
-1z"/>
<path d="M7884 6105 c-6 -14 25 -75 37 -75 3 0 18 -18 33 -39 26 -37 96 -234
96 -269 0 -17 -8 -34 -48 -105 -12 -21 -22 -42 -22 -48 0 -6 -10 -34 -23 -62
-13 -29 -38 -87 -57 -129 -26 -60 -50 -94 -108 -155 -41 -43 -78 -89 -84 -102
-15 -40 8 -138 60 -252 50 -110 278 -376 355 -415 18 -9 52 -31 77 -49 54 -39
121 -69 131 -58 4 5 10 37 13 73 10 99 11 101 116 242 136 182 209 328 226
446 5 43 5 184 -1 215 -18 90 -63 186 -131 277 -56 75 -238 261 -334 341 -36
30 -67 57 -70 60 -12 14 -128 86 -155 97 -49 19 -105 23 -111 7z"/>
<path d="M3971 5963 c-24 -7 -59 -14 -78 -15 -19 -1 -36 -5 -39 -9 -2 -4 8 -6
23 -4 16 2 61 6 101 9 76 6 92 11 92 27 0 12 -42 9 -99 -8z"/>
<path d="M6802 5472 c-33 -5 -37 -24 -22 -105 14 -82 19 -93 57 -134 24 -25
32 -28 51 -20 25 11 28 29 8 46 -36 30 -25 114 17 125 21 5 21 6 -5 33 -37 38
-78 60 -106 55z"/>
<path d="M5890 5379 c0 -31 22 -89 33 -89 18 0 55 28 67 50 12 23 -4 34 -63
45 -28 6 -37 4 -37 -6z"/>
<path d="M6616 5260 c-36 -32 -43 -54 -15 -56 8 0 19 3 24 7 6 4 36 16 68 27
47 16 55 21 43 31 -8 7 -30 14 -49 18 -28 4 -40 0 -71 -27z"/>
<path d="M6479 5247 c-4 -63 -28 -92 -85 -103 -19 -3 -34 -10 -34 -15 0 -10
58 -53 82 -62 21 -7 26 0 34 49 3 23 17 51 35 69 33 36 36 50 12 60 -30 13
-43 14 -44 2z"/>
<path d="M5896 5231 c-6 -9 26 -21 54 -21 9 1 5 7 -10 15 -30 17 -37 18 -44 6z"/>
<path d="M3900 5191 c-9 -3 -72 -45 -142 -93 -186 -130 -511 -336 -603 -383
-158 -82 -532 -215 -811 -290 -421 -112 -553 -176 -722 -354 -97 -102 -266
-367 -313 -491 -65 -172 11 -307 301 -533 90 -71 125 -90 150 -82 12 4 27 -2
42 -18 39 -40 73 -56 144 -68 38 -6 83 -17 100 -24 26 -11 42 -10 95 4 86 22
93 38 90 191 -1 63 -3 142 -4 175 -2 131 28 302 79 440 15 39 63 144 107 234
93 190 120 221 280 327 119 79 109 73 392 244 244 148 521 327 660 425 99 71
275 221 275 236 0 9 -62 51 -90 61 -8 3 -22 2 -30 -1z"/>
<path d="M6126 5153 c-13 -13 -5 -33 21 -58 43 -39 58 -32 32 15 -22 39 -41
54 -53 43z"/>
<path d="M6788 5152 c-35 -4 -211 -94 -210 -107 0 -14 53 -7 162 23 121 32
176 38 197 21 14 -12 16 -12 12 0 -3 8 -14 19 -24 25 -11 6 -24 17 -30 24 -11
13 -61 20 -107 14z"/>
<path d="M7230 5129 c-6 -11 -18 -38 -25 -60 -14 -40 -14 -41 15 -70 24 -25
33 -28 50 -19 40 22 42 107 2 153 -20 22 -29 22 -42 -4z"/>
<path d="M5788 5063 c-3 -5 -3 -14 -2 -20 1 -7 2 -31 3 -52 1 -36 4 -39 34
-44 17 -3 41 -7 52 -9 18 -3 20 2 18 51 -3 59 -13 72 -53 69 -14 -1 -31 1 -37
5 -6 4 -13 4 -15 0z"/>
<path d="M5476 5002 c-8 -13 50 -62 74 -62 23 0 34 30 17 47 -17 18 -83 28
-91 15z"/>
<path d="M6590 4974 c-32 -20 -79 -85 -82 -116 -2 -18 5 -27 35 -41 21 -11 44
-17 51 -14 16 6 43 164 30 177 -5 5 -20 2 -34 -6z"/>
<path d="M6955 4921 c-3 -6 4 -15 15 -21 11 -6 20 -21 20 -35 0 -38 25 -56 60
-43 42 14 58 45 33 64 -38 30 -117 52 -128 35z"/>
<path d="M8970 4888 c56 -55 154 -116 200 -124 46 -9 37 -1 -90 78 -148 92
-164 98 -110 46z"/>
<path d="M6731 4894 c-14 -31 -10 -38 28 -53 21 -9 39 -10 70 -1 43 11 45 25
8 40 -12 4 -38 15 -58 24 -36 15 -36 15 -48 -10z"/>
<path d="M6407 4890 c-18 -15 -34 -19 -54 -15 l-28 6 30 -26 c37 -33 129 -78
133 -66 2 5 -6 29 -17 52 -12 24 -21 49 -21 56 0 18 -13 16 -43 -7z"/>
<path d="M5942 4819 c-12 -5 -22 -13 -22 -19 0 -12 45 -60 79 -83 23 -16 27
-15 75 10 69 37 76 42 69 59 -15 38 -134 58 -201 33z"/>
<path d="M6220 4726 c0 -9 11 -28 25 -41 23 -24 45 -33 45 -17 -1 9 -30 44
-52 61 -15 12 -18 11 -18 -3z"/>
<path d="M5936 4682 c-3 -6 1 -15 8 -21 8 -7 17 -8 20 -3 3 6 -1 15 -8 21 -8
7 -17 8 -20 3z"/>
<path d="M3831 4606 c-114 -165 -204 -512 -203 -781 1 -158 -7 -194 -60 -251
-37 -40 -40 -47 -34 -84 24 -153 347 -507 578 -633 84 -46 135 -56 285 -53
250 5 370 58 537 237 115 124 182 230 191 303 6 44 -27 86 -99 127 -29 15 -60
37 -71 46 -112 102 -212 151 -458 223 -148 44 -182 39 -257 -39 -30 -31 -75
-80 -100 -109 -29 -32 -54 -52 -67 -52 -42 0 -149 126 -182 215 -29 77 -69
237 -81 323 -17 124 -6 312 26 422 30 107 39 150 31 150 -3 0 -20 -20 -36 -44z"/>
<path d="M7968 4484 c-4 -3 0 -27 7 -52 7 -26 23 -100 35 -164 13 -69 27 -115
32 -112 9 6 6 95 -6 154 -18 88 -56 186 -68 174z"/>
<path d="M10455 3990 c3 -4 19 -13 37 -20 18 -7 55 -21 83 -32 27 -11 54 -21
60 -23 5 -1 19 -5 30 -9 11 -5 36 -14 56 -21 42 -16 179 -45 211 -45 35 0 8
19 -37 25 -22 3 -51 8 -65 11 -14 2 -35 6 -47 8 -20 4 -102 32 -265 89 -37 13
-65 21 -63 17z"/>
<path d="M4820 3871 c0 -5 9 -39 20 -75 14 -45 29 -71 46 -82 33 -22 41 -11
18 23 -10 15 -31 54 -46 86 -25 53 -38 69 -38 48z"/>
<path d="M7573 3839 c-13 -7 -25 -20 -28 -30 -4 -11 -10 -19 -14 -19 -4 0 -22
-14 -39 -31 -45 -44 -45 -102 1 -156 74 -89 114 -125 206 -187 107 -72 153
-110 253 -207 77 -76 103 -85 218 -83 123 2 197 24 370 112 236 120 371 241
473 424 18 31 42 68 55 83 28 31 28 40 0 59 -29 20 -69 20 -116 0 -50 -22 -71
-20 -144 17 -73 37 -63 37 -483 -8 -93 -9 -98 -9 -127 -2 -14 4 -104 10 -200
14 -95 4 -186 9 -203 11 -88 12 -202 13 -222 3z"/>
<path d="M6606 3550 c-43 -16 -116 -37 -161 -46 -69 -13 -89 -22 -114 -48 -65
-68 -68 -103 -15 -207 37 -74 66 -102 162 -153 49 -27 141 -85 203 -129 188
-132 205 -137 337 -92 45 15 85 25 89 21 4 -4 2 -33 -5 -64 -16 -79 -15 -103
7 -155 33 -78 111 -159 221 -232 41 -28 111 -86 155 -131 125 -125 190 -170
265 -180 121 -17 315 82 485 249 148 146 244 320 271 492 10 60 8 72 -17 107
-15 21 -18 36 -13 63 l6 36 -38 -6 c-22 -4 -66 -21 -99 -38 -185 -95 -175 -92
-249 -92 -71 0 -98 4 -161 25 -44 14 -70 9 -179 -35 -109 -45 -235 -57 -326
-30 -104 30 -125 36 -155 41 -16 3 -34 10 -39 14 -5 5 8 38 32 78 23 38 51 95
62 126 22 58 22 58 179 185 54 44 35 55 -34 19 -52 -27 -72 -32 -142 -33 -112
-3 -188 23 -279 96 -97 77 -112 85 -179 99 -33 6 -75 20 -93 31 -45 26 -83 23
-176 -11z"/>
<path d="M5780 3348 c-10 -13 -38 -47 -62 -77 -35 -43 -63 -63 -143 -105 -133
-69 -171 -95 -229 -155 -46 -48 -51 -51 -100 -51 -81 0 -89 -13 -38 -59 81
-74 297 -166 462 -198 96 -18 287 1 363 37 58 27 142 99 191 164 73 96 92 166
61 225 -44 86 -295 222 -436 236 -44 5 -53 2 -69 -17z"/>
<path d="M9095 3188 c13 -58 66 -182 87 -203 l20 -20 -7 35 c-13 61 -86 220
-102 220 -2 0 -1 -15 2 -32z"/>
<path d="M6535 2803 c-11 -3 -27 -11 -35 -18 -8 -7 -49 -33 -90 -58 -41 -24
-133 -81 -205 -126 -184 -116 -344 -166 -439 -137 -23 7 -108 54 -190 105
-188 117 -296 166 -311 142 -3 -6 41 -47 97 -92 57 -44 132 -107 167 -138 376
-330 655 -475 912 -472 209 2 461 136 622 329 51 62 32 149 -50 238 -55 58
-92 83 -238 158 -127 65 -188 83 -240 69z"/>
<path d="M4876 2537 c-14 -19 -53 -88 -86 -154 -33 -66 -65 -125 -72 -130 -7
-6 -45 -22 -85 -36 -74 -27 -105 -45 -323 -183 -147 -93 -343 -194 -377 -194
-55 0 -75 15 -288 209 -72 66 -171 130 -280 182 -87 42 -113 50 -142 46 -48
-8 -98 -49 -140 -114 -33 -52 -35 -59 -34 -140 1 -100 11 -143 53 -233 48
-101 104 -176 207 -280 53 -52 129 -132 169 -177 40 -46 92 -96 115 -112 81
-55 202 -76 261 -46 73 38 383 328 551 515 173 193 391 536 479 753 16 40 32
127 22 127 -3 0 -16 -15 -30 -33z m-180 -364 c-8 -26 -84 -108 -92 -100 -8 8
28 66 62 101 29 29 39 28 30 -1z"/>
<path d="M3771 2370 c-28 -33 -51 -64 -51 -67 0 -10 68 57 92 90 39 54 9 38
-41 -23z"/>
</g>
</svg>
